#!OML:ASF H:\Not Pregnant\Project 1\Capture day 1\Session 1\non-pregnant.ASF
:FULLY-SPECIFIED
:DEGREES
547
root -5.67357 16.3032 34.6975 170.003 -81.1998 -158.147
lowerback -12.8208 2.8023 2.83248
upperback -5.89007 3.1016 -0.456291
thorax 1.17872 1.37285 -1.64541
lowerneck 13.6623 -7.83143 -30.8485
upperneck -10.4603 -15.1208 42.2945
head 1.3807 -9.78259 21.8617
rclavicle 3.8266e-015 -9.14409e-015
rhumerus -37.1228 7.65978 -93.4789
rradius 24.1254
rwrist 25.7556
rhand -8.72202 3.85595
rfingers 7.12502
rthumb 17.214 -25.4016
lclavicle 3.8266e-015 -9.14409e-015
lhumerus -44.0432 -8.84814 91.9491
lradius 31.5955
lwrist 34.8912
lhand -19.6442 -12.2118
lfingers 7.12502
lthumb 6.68332 17.6628
rfemur -9.491 -6.54109 22.1558
rtibia 8.49251
rfoot -13.5369 13.1596
rtoes -12.0167
lfemur -13.1765 3.01143 -15.3793
ltibia 12.9527
lfoot -13.4554 -6.35539
ltoes -21.4506
548
root -5.67207 16.304 34.6961 170.073 -81.2184 -158.19
lowerback -12.8084 2.79728 2.82816
upperback -5.90045 3.09561 -0.458183
thorax 1.1608 1.3694 -1.64657
lowerneck 13.6277 -7.81491 -30.8706
upperneck -10.3417 -15.1094 42.2375
head 1.40573 -9.76475 21.8273
rclavicle 3.79679e-014 2.38542e-015
rhumerus -37.0353 7.57342 -93.4377
rradius 24.0236
rwrist 25.7772
rhand -8.59863 3.8321
rfingers 7.12502
rthumb 17.3328 -25.415
lclavicle 3.79679e-014 2.38542e-015
lhumerus -43.9905 -8.95447 91.959
lradius 31.615
lwrist 35.0713
lhand -19.6575 -12.0772
lfingers 7.12502
lthumb 6.6705 17.7977
rfemur -9.53336 -6.55884 22.1407
rtibia 8.49374
rfoot -13.5121 13.1788
rtoes -11.9349
lfemur -13.1985 3.03055 -15.3912
ltibia 12.9174
lfoot -13.4345 -6.38761
ltoes -21.4728
549
root -5.67086 16.3048 34.6946 170.144 -81.2342 -158.232
lowerback -12.8044 2.794 2.81641
upperback -5.91096 3.0922 -0.454576
thorax 1.14669 1.3674 -1.63714
lowerneck 13.5974 -7.79785 -30.8955
upperneck -10.2245 -15.0982 42.1789
head 1.42977 -9.74706 21.7932
rclavicle 4.26393e-014 2.3059e-014
rhumerus -36.9453 7.48264 -93.3873
rradius 23.9217
rwrist 25.8298
rhand -8.47559 3.81499
rfingers 7.12502
rthumb 17.4512 -25.4217
lclavicle 4.26393e-014 2.3059e-014
lhumerus -43.9252 -9.037 91.9583
lradius 31.6013
lwrist 35.1239
lhand -19.5594 -11.9887
lfingers 7.12502
lthumb 6.76511 17.8832
rfemur -9.57664 -6.57357 22.1277
rtibia 8.4957
rfoot -13.4913 13.1938
rtoes -11.874
lfemur -13.2207 3.04532 -15.4011
ltibia 12.8835
lfoot -13.4143 -6.41331
ltoes -21.4791
550
root -5.66997 16.3056 34.6925 170.188 -81.2503 -158.249
lowerback -12.8051 2.79144 2.79942
upperback -5.92187 3.09 -0.44728
thorax 1.13434 1.3661 -1.6206
lowerneck 13.5736 -7.78068 -30.9235
upperneck -10.1088 -15.0891 42.1217
head 1.45359 -9.73114 21.7612
rclavicle 2.83268e-015 1.19271e-015
rhumerus -36.855 7.37912 -93.332
rradius 23.8221
rwrist 25.9218
rhand -8.35568 3.81448
rfingers 7.12502
rthumb 17.5666 -25.4119
lclavicle 2.83268e-015 1.19271e-015
lhumerus -43.8512 -9.09826 91.9483
lradius 31.5555
lwrist 35.041
lhand -19.3967 -11.9491
lfingers 7.12502
lthumb 6.92219 17.9177
rfemur -9.61245 -6.5886 22.1218
rtibia 8.4901
rfoot -13.4745 13.2014
rtoes -11.8507
lfemur -13.2434 3.06688 -15.4061
ltibia 12.855
lfoot -13.3987 -6.44734
ltoes -21.476
551
root -5.66971 16.3063 34.6902 170.273 -81.266 -158.306
lowerback -12.816 2.78846 2.76953
upperback -5.9315 3.08832 -0.440964
thorax 1.12822 1.36533 -1.59734
lowerneck 13.5502 -7.76299 -30.9436
upperneck -9.99358 -15.0778 42.064
head 1.47537 -9.71438 21.7278
rclavicle 7.0817e-015 -2.62396e-014
rhumerus -36.7726 7.31183 -93.2865
rradius 23.7404
rwrist 26.0059
rhand -8.24135 3.8236
rfingers 7.12502
rthumb 17.6766 -25.3929
lclavicle 7.0817e-015 -2.62396e-014
lhumerus -43.7754 -9.16686 91.9397
lradius 31.5128
lwrist 35.0383
lhand -19.1655 -11.974
lfingers 7.12502
lthumb 7.14537 17.8854
rfemur -9.64346 -6.60214 22.1104
rtibia 8.48114
rfoot -13.4598 13.2076
rtoes -11.8286
lfemur -13.2639 3.08081 -15.417
ltibia 12.828
lfoot -13.3845 -6.47224
ltoes -21.4658
552
root -5.66963 16.3071 34.6872 170.319 -81.2799 -158.323
lowerback -12.8331 2.78934 2.74031
upperback -5.94244 3.09132 -0.434732
thorax 1.12433 1.36682 -1.57366
lowerneck 13.5427 -7.74223 -30.9852
upperneck -9.88467 -15.0722 42.0261
head 1.50015 -9.70385 21.7135
rclavicle 1.18277e-014 5.56597e-015
rhumerus -36.6995 7.2799 -93.2627
rradius 23.6793
rwrist 26.0671
rhand -8.14596 3.81945
rfingers 7.12502
rthumb 17.7684 -25.3888
lclavicle 1.18277e-014 5.56597e-015
lhumerus -43.6965 -9.22575 91.9273
lradius 31.4646
lwrist 35.039
lhand -18.8912 -12.047
lfingers 7.12502
lthumb 7.41018 17.8032
rfemur -9.67167 -6.61415 22.11
rtibia 8.46636
rfoot -13.442 13.2146
rtoes -11.7891
lfemur -13.2877 3.10425 -15.4192
ltibia 12.8045
lfoot -13.3726 -6.50774
ltoes -21.441
553
root -5.6697 16.3079 34.6839 170.399 -81.293 -158.37
lowerback -12.8582 2.7881 2.69799
upperback -5.95507 3.09252 -0.427827
thorax 1.12219 1.36755 -1.54192
lowerneck 13.5434 -7.71798 -31.0488
upperneck -9.77601 -15.0712 42.0057
head 1.53005 -9.69787 21.7164
rclavicle -7.35503e-015 -1.31198e-014
rhumerus -36.6276 7.22125 -93.247
rradius 23.6197
rwrist 26.1766
rhand -8.08231 3.81755
rfingers 7.12502
rthumb 17.8296 -25.3851
lclavicle -7.35503e-015 -1.31198e-014
lhumerus -43.6286 -9.28915 91.9351
lradius 31.4214
lwrist 34.9937
lhand -18.6543 -12.1394
lfingers 7.12502
lthumb 7.63881 17.7026
rfemur -9.70034 -6.62378 22.1095
rtibia 8.44742
rfoot -13.4249 13.2206
rtoes -11.7514
lfemur -13.3157 3.1256 -15.4244
ltibia 12.7824
lfoot -13.3612 -6.53835
ltoes -21.4255
554
root -5.66973 16.3088 34.6801 170.424 -81.2988 -158.355
lowerback -12.891 2.79087 2.6575
upperback -5.97006 3.09821 -0.416487
thorax 1.12178 1.37041 -1.50572
lowerneck 13.5602 -7.68928 -31.133
upperneck -9.67603 -15.0723 42.0011
head 1.56001 -9.69581 21.7365
rclavicle -2.74571e-014 -2.14687e-014
rhumerus -36.567 7.20195 -93.2607
rradius 23.5822
rwrist 26.2461
rhand -8.0477 3.79639
rfingers 7.12502
rthumb 17.8629 -25.4032
lclavicle -2.74571e-014 -2.14687e-014
lhumerus -43.5628 -9.33805 91.9484
lradius 31.3724
lwrist 34.8827
lhand -18.4061 -12.2424
lfingers 7.12502
lthumb 7.87841 17.5908
rfemur -9.72763 -6.62637 22.1267
rtibia 8.41526
rfoot -13.4006 13.2302
rtoes -11.6981
lfemur -13.3525 3.15012 -15.4142
ltibia 12.7669
lfoot -13.3503 -6.56813
ltoes -21.3954
555
root -5.66975 16.3098 34.6768 170.423 -81.2986 -158.31
lowerback -12.9313 2.79165 2.62148
upperback -5.98615 3.1001 -0.397536
thorax 1.12381 1.37128 -1.46438
lowerneck 13.5771 -7.65728 -31.2215
upperneck -9.57692 -15.0682 41.9924
head 1.58734 -9.69057 21.7565
rclavicle 2.62893e-014 7.15625e-015
rhumerus -36.511 7.20021 -93.2974
rradius 23.554
rwrist 26.311
rhand -8.03888 3.77153
rfingers 7.12502
rthumb 17.8714 -25.4273
lclavicle 2.62893e-014 7.15625e-015
lhumerus -43.5059 -9.37049 91.9751
lradius 31.3321
lwrist 34.7766
lhand -18.1204 -12.361
lfingers 7.12502
lthumb 8.15409 17.4617
rfemur -9.75384 -6.62366 22.1496
rtibia 8.36949
rfoot -13.3675 13.2454
rtoes -11.6363
lfemur -13.3964 3.16063 -15.3971
ltibia 12.7579
lfoot -13.3407 -6.57414
ltoes -21.3946
556
root -5.66963 16.3109 34.6734 170.379 -81.2947 -158.217
lowerback -12.9729 2.7947 2.59678
upperback -6.00534 3.10345 -0.378903
thorax 1.12397 1.37254 -1.42952
lowerneck 13.5996 -7.6281 -31.2794
upperneck -9.48648 -15.0594 41.9679
head 1.60377 -9.68253 21.7602
rclavicle 5.01434e-014 1.86858e-014
rhumerus -36.4682 7.23758 -93.3716
rradius 23.5486
rwrist 26.3283
rhand -8.04979 3.75526
rfingers 7.12502
rthumb 17.8609 -25.4445
lclavicle 5.01434e-014 1.86858e-014
lhumerus -43.4543 -9.38535 91.9982
lradius 31.296
lwrist 34.657
lhand -17.8038 -12.474
lfingers 7.12502
lthumb 8.45971 17.3365
rfemur -9.77595 -6.61759 22.1849
rtibia 8.30724
rfoot -13.3302 13.2592
rtoes -11.6037
lfemur -13.449 3.16032 -15.3686
ltibia 12.7576
lfoot -13.3311 -6.5687
ltoes -21.3764
557
root -5.66943 16.312 34.6702 170.3 -81.287 -158.088
lowerback -13.0146 2.80002 2.57602
upperback -6.02315 3.10936 -0.358123
thorax 1.12576 1.3751 -1.39424
lowerneck 13.6164 -7.6074 -31.2867
upperneck -9.40448 -15.0446 41.9121
head 1.60675 -9.66861 21.7312
rclavicle 3.71479e-014 6.75868e-015
rhumerus -36.4383 7.3481 -93.4817
rradius 23.5756
rwrist 26.2593
rhand -8.0698 3.74326
rfingers 7.12502
rthumb 17.8417 -25.4583
lclavicle 3.71479e-014 6.75868e-015
lhumerus -43.4018 -9.3911 92.0228
lradius 31.2783
lwrist 34.6118
lhand -17.4363 -12.556
lfingers 7.12502
lthumb 8.81433 17.2399
rfemur -9.79582 -6.60807 22.2288
rtibia 8.24176
rfoot -13.2906 13.2713
rtoes -11.5763
lfemur -13.5018 3.15702 -15.332
ltibia 12.7593
lfoot -13.3194 -6.55915
ltoes -21.3362
558
root -5.66921 16.3131 34.6669 170.239 -81.2814 -157.982
lowerback -13.0558 2.80414 2.54849
upperback -6.03871 3.11461 -0.336109
thorax 1.1292 1.37757 -1.35393
lowerneck 13.6312 -7.59412 -31.2541
upperneck -9.33428 -15.0246 41.827
head 1.59657 -9.64955 21.6737
rclavicle 7.28049e-015 -9.93923e-015
rhumerus -36.4184 7.52366 -93.6243
rradius 23.6304
rwrist 26.1174
rhand -8.09946 3.71069
rfingers 7.12502
rthumb 17.8131 -25.4935
lclavicle 7.28049e-015 -9.93923e-015
lhumerus -43.3452 -9.37013 92.0399
lradius 31.2785
lwrist 34.6643
lhand -16.9966 -12.6038
lfingers 7.12502
lthumb 9.23866 17.1738
rfemur -9.81461 -6.60007 22.2697
rtibia 8.1796
rfoot -13.2532 13.2807
rtoes -11.5601
lfemur -13.5514 3.15026 -15.2992
ltibia 12.7596
lfoot -13.308 -6.54662
ltoes -21.3043
559
root -5.66944 16.3139 34.6642 170.241 -81.2822 -157.947
lowerback -13.0956 2.80202 2.51365
upperback -6.04847 3.11293 -0.316563
thorax 1.13742 1.37696 -1.31299
lowerneck 13.6294 -7.58557 -31.1824
upperneck -9.26471 -14.995 41.7162
head 1.5777 -9.62231 21.5901
rclavicle 3.74212e-014 8.34896e-015
rhumerus -36.4107 7.77088 -93.7991
rradius 23.7162
rwrist 25.9111
rhand -8.12846 3.6708
rfingers 7.12502
rthumb 17.7852 -25.5359
lclavicle 3.74212e-014 8.34896e-015
lhumerus -43.2884 -9.34633 92.0557
lradius 31.3177
lwrist 34.9648
lhand -16.4675 -12.6208
lfingers 7.12502
lthumb 9.7491 17.1335
rfemur -9.82924 -6.59815 22.2907
rtibia 8.13031
rfoot -13.2203 13.2925
rtoes -11.5212
lfemur -13.587 3.12996 -15.2826
ltibia 12.7534
lfoot -13.2972 -6.52137
ltoes -21.301
